<svg width="230" height="92" viewBox="0 0 230 92" fill="none" xmlns="http://www.w3.org/2000/svg">
<g clip-path="url(#clip0_498_589)">
<path d="M122.153 60.5399L90.5996 0L29.8819 31.4614L61.4357 92.0012L122.153 60.5399Z" fill="url(#paint0_linear_498_589)"/>
<path d="M119.61 21.6411H126.122L123.085 41.039H114.941L113.514 33.8995H113.152L111.752 41.039H103.635L100.577 21.6411H107.089L108.542 32.477H108.726L110.985 21.6411H115.73L117.962 32.477H118.146L119.626 21.6411H119.61Z" fill="black"/>
<path d="M133.747 35.764V36.8524C134.061 36.8847 134.369 36.9117 134.682 36.9278C134.996 36.944 135.304 36.9548 135.617 36.9548C137.552 36.9548 139.508 36.6423 141.481 36.0226L142.205 40.5757C139.87 41.1954 137.568 41.5079 135.304 41.5079C132.396 41.5079 130.299 40.829 129.002 39.4765C127.705 38.124 127.057 36.0603 127.057 33.2799C127.057 30.4996 127.711 28.4412 129.013 27.0834C130.321 25.7309 132.418 25.052 135.304 25.052C136.757 25.052 137.968 25.1436 138.935 25.3214C139.903 25.5046 140.686 25.8064 141.281 26.2267C141.875 26.6469 142.302 27.2181 142.551 27.9347C142.799 28.6514 142.929 29.5512 142.929 30.6397C142.929 31.5341 142.778 32.3101 142.475 32.9566C142.172 33.6032 141.664 34.1313 140.956 34.5462C140.248 34.9611 139.303 35.2682 138.13 35.4622C136.952 35.6616 135.493 35.7586 133.747 35.7586V35.764ZM133.747 30.9037V32.17H135.017C135.779 32.17 136.325 32.0945 136.665 31.9383C137.006 31.782 137.173 31.421 137.173 30.8498V29.5836H135.904C135.142 29.5836 134.596 29.659 134.255 29.8153C133.915 29.9715 133.747 30.3325 133.747 30.9037Z" fill="black"/>
<path d="M155.229 35.3221V34.4923H153.645V29.7344H161.141V40.1069C158.687 41.0391 156.137 41.5025 153.489 41.5025C151.673 41.5025 150.17 41.2869 148.987 40.8559C147.803 40.4248 146.863 39.7836 146.171 38.9269C145.48 38.0755 144.999 37.014 144.734 35.7478C144.464 34.4815 144.334 32.9997 144.334 31.3132C144.334 29.5189 144.496 27.9832 144.826 26.6954C145.155 25.413 145.701 24.3569 146.458 23.5378C147.22 22.7188 148.23 22.1207 149.495 21.7382C150.759 21.361 152.321 21.167 154.191 21.167C154.607 21.167 155.094 21.1885 155.656 21.2317C156.218 21.2748 156.785 21.334 157.353 21.4149C157.925 21.4903 158.466 21.5765 158.974 21.6735C159.482 21.7705 159.892 21.8675 160.206 21.9699L159.271 26.7277C158.423 26.5876 157.617 26.4799 156.861 26.4044C156.099 26.329 155.391 26.2859 154.732 26.2859C153.364 26.2859 152.408 26.3883 151.851 26.5984C151.3 26.8032 151.019 27.2181 151.019 27.8377V36.6314H153.067C153.829 36.6314 154.375 36.5506 154.715 36.3836C155.05 36.2219 155.223 35.8609 155.223 35.3113L155.229 35.3221Z" fill="#6CCFF6"/>
<path d="M163.319 33.2799C163.319 30.505 163.967 28.4412 165.264 27.0834C166.561 25.7309 168.663 25.052 171.565 25.052C174.467 25.052 176.57 25.7309 177.867 27.0834C179.164 28.4359 179.812 30.4996 179.812 33.2799C179.812 36.0603 179.164 38.1187 177.867 39.4765C176.57 40.829 174.467 41.5079 171.565 41.5079C168.663 41.5079 166.648 40.8451 165.313 39.5142C163.983 38.1887 163.313 36.1088 163.313 33.2799H163.319ZM170.009 30.8983V36.9763H170.971C171.733 36.9763 172.279 36.9009 172.619 36.7446C172.954 36.5884 173.127 36.2274 173.127 35.6562V29.5782H172.165C171.403 29.5782 170.857 29.6536 170.517 29.8099C170.177 29.9661 170.009 30.3272 170.009 30.8983V30.8983Z" fill="#6CCFF6"/>
<path d="M198.273 67.334H105.727C104.473 67.334 103.219 67.3071 101.971 67.334C101.917 67.334 101.863 67.334 101.809 67.334C100.539 67.334 99.3176 68.4494 99.377 69.7587C99.4365 71.0681 100.447 72.1835 101.809 72.1835H194.355C195.608 72.1835 196.862 72.2104 198.111 72.1835C198.165 72.1835 198.219 72.1835 198.273 72.1835C199.543 72.1835 200.764 71.0681 200.705 69.7587C200.645 68.4494 199.635 67.334 198.273 67.334V67.334Z" fill="black"/>
<path d="M199.991 67.7759L194.333 62.1343L185.314 53.1412L183.244 51.0775C182.341 50.1777 180.693 50.113 179.807 51.0775C178.92 52.042 178.845 53.5508 179.807 54.5045L185.465 60.146L194.484 69.1391L196.554 71.2028C197.457 72.1027 199.105 72.1674 199.991 71.2028C200.877 70.2383 200.953 68.7296 199.991 67.7759V67.7759Z" fill="black"/>
<path d="M196.554 68.3146L190.896 73.9562L181.876 82.9493L179.807 85.013C178.904 85.9128 178.839 87.5563 179.807 88.44C180.774 89.3236 182.287 89.3991 183.244 88.44L188.902 82.7984L197.921 73.8053L199.991 71.7416C200.894 70.8417 200.959 69.1983 199.991 68.3146C199.024 67.4309 197.511 67.3555 196.554 68.3146V68.3146Z" fill="black"/>
<path d="M101.144 63.1688L102.025 58.0499C103.927 58.5133 105.646 58.7504 107.186 58.7504C107.964 58.7504 108.65 58.7396 109.25 58.7127C109.845 58.6857 110.38 58.6372 110.845 58.5726V57.0207L108.045 56.789C106.781 56.6705 105.727 56.4604 104.878 56.1694C104.03 55.8784 103.354 55.4743 102.841 54.9678C102.333 54.4613 101.966 53.847 101.749 53.1304C101.533 52.4137 101.425 51.5732 101.425 50.6087C101.425 49.2831 101.566 48.1731 101.841 47.2841C102.117 46.395 102.56 45.6783 103.165 45.1395C103.77 44.5953 104.554 44.2127 105.511 43.9864C106.473 43.7601 107.64 43.6523 109.023 43.6523C111.774 43.6523 114.265 43.911 116.492 44.4283L115.714 49.3963C113.779 49.0838 112.228 48.9329 111.071 48.9329C109.915 48.9329 108.926 48.9868 108.115 49.0891V50.614L110.347 50.8188C111.715 50.9589 112.855 51.1852 113.774 51.5031C114.692 51.821 115.427 52.2413 115.989 52.7586C116.551 53.2759 116.951 53.8901 117.184 54.596C117.416 55.3019 117.535 56.1155 117.535 57.0261C117.535 58.3355 117.362 59.4401 117.016 60.3346C116.67 61.229 116.254 61.9133 115.773 62.3767C115.373 62.7539 114.881 63.0556 114.292 63.2712C113.703 63.4867 113.082 63.6484 112.423 63.7507C111.763 63.8531 111.104 63.9178 110.439 63.9447C109.774 63.9717 109.175 63.9824 108.634 63.9824C107.283 63.9824 105.986 63.9124 104.743 63.7777C103.5 63.6376 102.295 63.4436 101.139 63.185L101.144 63.1688Z" fill="black"/>
<path d="M119.869 68.6272V47.99H122.982L124.122 49.5418C125.041 48.1948 126.733 47.5266 129.208 47.5266C130.451 47.5266 131.499 47.7529 132.348 48.2002C133.196 48.6474 133.882 49.2455 134.412 49.9998C134.942 50.7488 135.32 51.6271 135.552 52.624C135.785 53.6262 135.903 54.6661 135.903 55.7546C135.903 56.843 135.801 57.7967 135.59 58.7289C135.385 59.6611 135.039 60.4855 134.552 61.1968C134.066 61.9134 133.428 62.4792 132.634 62.8887C131.84 63.3036 130.851 63.5083 129.678 63.5083H126.1V68.1638L119.875 68.6272H119.869ZM126.095 53.2113V59.4456H127.057C127.819 59.4456 128.365 59.3701 128.705 59.2139C129.04 59.0576 129.213 58.6966 129.213 58.1254V52.0474H128.251C127.803 52.0474 127.441 52.0636 127.16 52.1013C126.884 52.1336 126.641 52.2468 126.435 52.4354C126.23 52.6078 126.117 52.8664 126.1 53.2113H126.095Z" fill="black"/>
<path d="M137.768 55.7438C137.768 52.9688 138.416 50.9051 139.713 49.5473C141.01 48.1948 143.113 47.5159 146.015 47.5159C148.917 47.5159 151.019 48.1948 152.316 49.5473C153.613 50.8997 154.261 52.9634 154.261 55.7438C154.261 58.5242 153.613 60.5825 152.316 61.9404C151.019 63.2928 148.917 63.9718 146.015 63.9718C143.113 63.9718 141.097 63.309 139.762 61.9781C138.433 60.6526 137.763 58.5727 137.763 55.7438H137.768ZM144.458 53.3622V59.4402H145.42C146.182 59.4402 146.728 59.3648 147.068 59.2085C147.403 59.0522 147.576 58.6912 147.576 58.1201V52.042H146.614C145.852 52.042 145.307 52.1175 144.966 52.2737C144.626 52.43 144.458 52.791 144.458 53.3622Z" fill="black"/>
<path d="M156.758 63.503V47.9846H159.871L161.584 49.7197C162.827 48.5827 164.367 47.8499 166.199 47.5212L166.561 53.3945C166.318 53.3945 166.026 53.4268 165.68 53.4969C165.334 53.5669 164.983 53.6531 164.632 53.7555C164.275 53.8579 163.951 53.9818 163.659 54.1327C163.367 54.2782 163.14 54.4452 162.984 54.6392V63.5083H156.758V63.503Z" fill="black"/>
<path d="M169.052 51.9935H167.496V47.9846H169.052V45.5006L175.278 43.9487V47.9846H177.429V51.9935H175.278V59.0522C175.537 59.106 175.824 59.1491 176.132 59.1923C176.445 59.2354 176.77 59.2677 177.115 59.2839L176.829 63.837C173.992 63.837 172.144 63.6807 171.279 63.3736C170.555 63.1149 169.998 62.7809 169.62 62.3767C169.242 61.9726 169.047 61.3745 169.047 60.577V51.9881L169.052 51.9935Z" fill="black"/>
<g opacity="0.19">
<path opacity="0.19" d="M48.8754 61.9184C48.8754 61.5736 48.8267 61.2233 48.8754 60.8839C49.0051 59.8386 49.5185 59.0411 50.5074 58.5992C50.6641 58.5292 50.8371 58.4915 51.0046 58.4484C54.0525 57.6132 57.1005 56.778 60.1484 55.9536C60.3538 55.8997 60.4564 55.8027 60.5321 55.6087C63.4341 48.1944 66.3469 40.7855 69.2544 33.3712C69.2706 33.3227 69.2868 33.2796 69.3138 33.1988C69.2328 33.2149 69.1733 33.2203 69.1139 33.2365C68.0006 33.5382 66.8928 33.8507 65.7795 34.1417C65.6012 34.1902 65.5688 34.3141 65.5147 34.4435C64.1961 37.7896 62.8775 41.1411 61.5535 44.4819C61.1644 45.4625 60.2943 45.9798 59.3432 45.7858C58.5218 45.6188 57.9705 45.1069 57.6301 44.3579C57.2572 43.5389 57.3437 42.7414 57.6949 41.9116C58.4137 40.2089 59.0676 38.4793 59.7485 36.7604C60.5051 34.8476 61.2725 32.9347 62.0236 31.0165C62.3155 30.2675 62.8289 29.8041 63.6125 29.5886C66.8279 28.7049 70.038 27.8104 73.248 26.916C74.1127 26.6735 74.9071 26.8136 75.6475 27.3039C78.3982 29.1198 81.1489 30.9303 83.8996 32.7461C83.9104 32.7515 83.9266 32.7569 83.959 32.7731C84.0941 32.4983 84.2292 32.2181 84.3643 31.9433C85.4181 29.7448 86.4719 27.5518 87.5258 25.3534C88.0986 24.1626 89.6334 23.8824 90.7034 24.766C91.6599 25.5635 91.9734 26.9645 91.4438 28.0852C90.0495 31.0327 88.6552 33.9801 87.2555 36.9221C87.1204 37.2023 86.9637 37.4717 86.78 37.7195C86.018 38.7433 84.8669 38.9481 83.7969 38.2476C82.2837 37.2562 80.776 36.2485 79.2682 35.2517C79.0737 35.1224 78.8845 34.9984 78.663 34.853C77.3768 38.1291 76.0906 41.3836 74.8044 44.6543C75.3124 44.9884 75.8204 45.3278 76.323 45.6565C78.2306 46.9174 80.1437 48.1729 82.0568 49.4337C82.9322 50.0103 83.4078 50.8616 83.5861 51.8585C83.7266 52.6505 83.7699 53.4588 83.8347 54.267C83.9914 56.1799 84.132 58.0927 84.2833 60.0002C84.4454 62.0747 84.6075 64.1546 84.775 66.2291C84.8777 67.5492 85.0074 68.8748 85.0777 70.1949C85.1425 71.3857 84.721 72.3718 83.651 73.013C83.5753 73.0561 83.5051 73.0992 83.4294 73.1423L82.8836 73.2932C82.4837 73.2501 82.0568 73.2824 81.6947 73.1531C80.3328 72.6573 79.6573 71.6012 79.5276 70.2057C79.3439 68.2228 79.2142 66.2399 79.0575 64.257C78.8575 61.6544 78.6522 59.0572 78.4522 56.4547C78.4414 56.2984 78.3928 56.1961 78.2523 56.1098C75.8042 54.5526 73.3561 52.9846 70.9134 51.422C70.6432 51.2496 70.3676 51.0772 70.092 50.9047C70.065 50.9586 70.0488 50.9909 70.038 51.0287C69.0382 53.4426 68.0384 55.862 67.0333 58.2759C66.8333 58.7609 66.6604 59.2728 66.3902 59.72C65.8498 60.6145 64.9851 61.0994 64.007 61.3742C60.2241 62.4357 56.4412 63.4811 52.6583 64.5318C52.4691 64.5857 52.28 64.6395 52.0854 64.6503C50.8533 64.715 49.9886 64.1276 49.3672 63.12C49.2591 62.9476 49.178 62.7644 49.0807 62.5866L48.897 61.9184H48.8754Z" fill="black"/>
<path opacity="0.19" d="M82.3647 28.092C85.6721 27.1769 87.6415 23.878 86.7636 20.7237C85.8857 17.5695 82.4928 15.7543 79.1855 16.6694C75.8782 17.5846 73.9088 20.8835 74.7867 24.0377C75.6646 27.192 79.0574 29.0071 82.3647 28.092Z" fill="black"/>
</g>
<g opacity="0.59">
<path opacity="0.59" d="M52.6583 61.9187C52.6583 61.5738 52.6096 61.2236 52.6583 60.8841C52.788 59.8388 53.3014 59.0413 54.2903 58.5995C54.447 58.5294 54.62 58.4917 54.7875 58.4486C57.8354 57.6134 60.8834 56.7782 63.9313 55.9538C64.1367 55.8999 64.2393 55.803 64.315 55.609C67.217 48.1947 70.1298 40.7857 73.0373 33.3714C73.0535 33.3229 73.0697 33.2798 73.0967 33.199C73.0156 33.2152 72.9562 33.2205 72.8968 33.2367C71.7835 33.5385 70.6757 33.851 69.5624 34.142C69.3841 34.1904 69.3516 34.3144 69.2976 34.4437C67.979 37.7898 66.6604 41.1414 65.3364 44.4821C64.9473 45.4628 64.0772 45.9801 63.1261 45.7861C62.3047 45.6191 61.7534 45.1072 61.413 44.3582C61.0401 43.5392 61.1266 42.7417 61.4778 41.9119C62.1966 40.2092 62.8505 38.4795 63.5314 36.7607C64.288 34.8478 65.0554 32.935 65.8065 31.0167C66.0984 30.2678 66.6117 29.8044 67.3953 29.5888C70.6108 28.7051 73.8209 27.8107 77.0309 26.9162C77.8956 26.6738 78.69 26.8138 79.4304 27.3042C82.1811 29.12 84.9318 30.9305 87.6825 32.7464C87.6933 32.7518 87.7095 32.7572 87.7419 32.7733C87.877 32.4985 88.0121 32.2183 88.1472 31.9435C89.201 29.7451 90.2548 27.552 91.3086 25.3536C91.8815 24.1628 93.4163 23.8826 94.4863 24.7663C95.4428 25.5638 95.7562 26.9647 95.2266 28.0855C93.8324 31.0329 92.4381 33.9803 91.0384 36.9223C90.9033 37.2025 90.7466 37.4719 90.5629 37.7198C89.8009 38.7436 88.6498 38.9483 87.5798 38.2478C86.0666 37.2564 84.5589 36.2488 83.0511 35.2519C82.8566 35.1226 82.6674 34.9987 82.4459 34.8532C81.1597 38.1293 79.8735 41.3838 78.5873 44.6545C79.0953 44.9886 79.6033 45.3281 80.1059 45.6568C82.0135 46.9176 83.9266 48.1731 85.8397 49.434C86.7151 50.0105 87.1907 50.8619 87.369 51.8587C87.5095 52.6508 87.5528 53.459 87.6176 54.2673C87.7743 56.1801 87.9148 58.093 88.0662 60.0004C88.2283 62.0749 88.3904 64.1548 88.5579 66.2293C88.6606 67.5495 88.7903 68.875 88.8606 70.1951C88.9254 71.3859 88.5039 72.372 87.4339 73.0132C87.3582 73.0563 87.288 73.0994 87.2123 73.1425L86.6665 73.2934C86.2666 73.2503 85.8397 73.2826 85.4776 73.1533C84.1157 72.6576 83.4402 71.6015 83.3105 70.2059C83.1268 68.223 82.9971 66.2401 82.8404 64.2572C82.6404 61.6547 82.435 59.0575 82.2351 56.4549C82.2243 56.2987 82.1757 56.1963 82.0351 56.1101C79.5871 54.5529 77.139 52.9849 74.6963 51.4223C74.4261 51.2498 74.1505 51.0774 73.8749 50.905C73.8479 50.9589 73.8317 50.9912 73.8209 51.0289C72.8211 53.4429 71.8213 55.8622 70.8162 58.2762C70.6162 58.7611 70.4433 59.273 70.1731 59.7203C69.6327 60.6147 68.768 61.0997 67.7898 61.3745C64.007 62.436 60.2241 63.4813 56.4412 64.532C56.252 64.5859 56.0629 64.6398 55.8683 64.6506C54.6362 64.7152 53.7715 64.1279 53.1501 63.1203C53.042 62.9479 52.9609 62.7647 52.8636 62.5868L52.6799 61.9187H52.6583Z" fill="black"/>
<path opacity="0.59" d="M86.1504 28.091C89.4577 27.1759 91.4271 23.877 90.5492 20.7227C89.6713 17.5685 86.2785 15.7533 82.9712 16.6684C79.6638 17.5836 77.6944 20.8825 78.5723 24.0367C79.4503 27.191 82.8431 29.0062 86.1504 28.091Z" fill="black"/>
</g>
<path d="M56.4412 61.9187C56.4412 61.5738 56.3925 61.2236 56.4412 60.8841C56.5709 59.8388 57.0843 59.0413 58.0732 58.5995C58.2299 58.5294 58.4029 58.4917 58.5704 58.4486C61.6183 57.6134 64.6663 56.7782 67.7142 55.9538C67.9196 55.8999 68.0222 55.803 68.0979 55.609C70.9999 48.1947 73.9127 40.7857 76.8202 33.3714C76.8364 33.3229 76.8526 33.2798 76.8796 33.199C76.7986 33.2152 76.7391 33.2205 76.6797 33.2367C75.5664 33.5385 74.4586 33.851 73.3453 34.142C73.167 34.1904 73.1345 34.3144 73.0805 34.4437C71.7619 37.7898 70.4433 41.1414 69.1193 44.4821C68.7302 45.4628 67.8601 45.9801 66.909 45.7861C66.0876 45.6191 65.5363 45.1072 65.1959 44.3582C64.823 43.5392 64.9095 42.7417 65.2607 41.9119C65.9795 40.2092 66.6334 38.4795 67.3143 36.7607C68.0709 34.8478 68.8383 32.935 69.5894 31.0167C69.8813 30.2678 70.3947 29.8044 71.1783 29.5888C74.3937 28.7051 77.6038 27.8107 80.8138 26.9162C81.6785 26.6738 82.4729 26.8138 83.2133 27.3042C85.964 29.12 88.7147 30.9305 91.4654 32.7464C91.4762 32.7518 91.4924 32.7572 91.5248 32.7733C91.6599 32.4985 91.795 32.2183 91.9301 31.9435C92.9839 29.7451 94.0377 27.552 95.0916 25.3536C95.6644 24.1628 97.1992 23.8826 98.2692 24.7663C99.2257 25.5638 99.5392 26.9647 99.0096 28.0855C97.6153 31.0329 96.221 33.9803 94.8213 36.9223C94.6862 37.2025 94.5295 37.4719 94.3458 37.7198C93.5838 38.7436 92.4327 38.9483 91.3627 38.2478C89.8495 37.2564 88.3418 36.2488 86.834 35.2519C86.6395 35.1226 86.4503 34.9987 86.2288 34.8532C84.9426 38.1293 83.6564 41.3838 82.3702 44.6545C82.8782 44.9886 83.3862 45.3281 83.8888 45.6568C85.7964 46.9176 87.7095 48.1731 89.6226 49.434C90.498 50.0105 90.9736 50.8619 91.1519 51.8587C91.2924 52.6508 91.3357 53.459 91.4005 54.2673C91.5572 56.1801 91.6978 58.093 91.8491 60.0004C92.0112 62.0749 92.1733 64.1548 92.3408 66.2293C92.4435 67.5495 92.5732 68.875 92.6435 70.1951C92.7083 71.3859 92.2868 72.372 91.2168 73.0132C91.1411 73.0563 91.0709 73.0994 90.9952 73.1425L90.4494 73.2934C90.0495 73.2503 89.6226 73.2826 89.2605 73.1533C87.8986 72.6576 87.2231 71.6015 87.0934 70.2059C86.9097 68.223 86.78 66.2401 86.6233 64.2572C86.4233 61.6547 86.218 59.0575 86.018 56.4549C86.0072 56.2987 85.9586 56.1963 85.8181 56.1101C83.37 54.5529 80.9219 52.9849 78.4792 51.4223C78.209 51.2498 77.9334 51.0774 77.6578 50.905C77.6308 50.9589 77.6146 50.9912 77.6038 51.0289C76.604 53.4429 75.6042 55.8622 74.5991 58.2762C74.3991 58.7611 74.2262 59.273 73.956 59.7203C73.4156 60.6147 72.5509 61.0997 71.5728 61.3745C67.7899 62.436 64.007 63.4813 60.2241 64.532C60.0349 64.5859 59.8458 64.6398 59.6512 64.6506C58.4191 64.7152 57.5544 64.1279 56.9329 63.1203C56.8249 62.9479 56.7438 62.7647 56.6465 62.5868L56.4628 61.9187H56.4412Z" fill="black"/>
<path d="M89.9306 28.0954C93.2379 27.1803 95.2073 23.8814 94.3294 20.7271C93.4515 17.5729 90.0587 15.7577 86.7514 16.6728C83.4441 17.588 81.4746 20.8869 82.3525 24.0411C83.2305 27.1954 86.6233 29.0106 89.9306 28.0954Z" fill="black"/>
</g>
<defs>
<linearGradient id="paint0_linear_498_589" x1="29.8797" y1="46.001" x2="122.15" y2="46.001" gradientUnits="userSpaceOnUse">
<stop stop-color="#98EC00"/>
<stop offset="0.11" stop-color="#97EC09"/>
<stop offset="0.29" stop-color="#96ED22"/>
<stop offset="0.52" stop-color="#94EF4C"/>
<stop offset="0.79" stop-color="#91F185"/>
<stop offset="0.99" stop-color="#8FF4B4"/>
</linearGradient>
<clipPath id="clip0_498_589">
<rect width="230" height="92" fill="white"/>
</clipPath>
</defs>
</svg>
