<svg id="Calque_1" data-name="Calque 1" xmlns="http://www.w3.org/2000/svg" viewBox="0 0 1392.38 483.21"><path d="M581.65,454.93c0-32.59,6.71-56.76,23.92-56.76,6.23,0,13.8,3.29,23.07,10.49-5.61,38.58-10.25,87.89-10.25,125.49,0,15.14.73,28.32,2.44,38.21.25,1.34,6.71,41.38,15.75,41.38,12.69,0,25.75-92,28.44-115.23q-.36-6.6-.37-12.82c0-30,6.23-53,21.61-53,5.13,0,11.23,2.44,18.56,8.18-4.89,32.84-8.79,74.59-8.79,106.45,0,12.81.61,23.92,2.07,32.34,3.66,21,6.72,33.45,11.11,33.45s9.64-11.23,18.19-37c13.18-40.52,29.42-103,29.42-139.89,0-14.52-2.08-27-7.57-35.52a4.75,4.75,0,0,1-.86-2.81,5.19,5.19,0,0,1,5.13-5.25,5.44,5.44,0,0,1,4.64,2.44c6.59,10.5,9.28,25.15,9.28,41.75,0,4.76-.25,9.77-.61,14.89-2.69,32.11-30.64,162.36-54.93,172a7.88,7.88,0,0,1-3.3.61c-20.87,0-37.23-77-38.57-84.59-3.54,21.24-8.43,45.77-14.9,64.94-5.49,16.36-12,23.31-18.55,23.31C610.94,628,581.65,523,581.65,454.93Z" transform="translate(-31.78 -165.32)"/><path d="M768.29,544.41a78.93,78.93,0,0,1-.85-12.45c0-23.56,7.69-55.55,22.7-69.58,5.5-5,10.26-6.6,15.14-6.72a10.89,10.89,0,0,1,8.42,3.79c10.74,1.09,21.24,4.76,29,12.57,11-5.62,22.59-10.74,34.67-10.74,5.62,0,14.29.48,14.29,6.34a5.26,5.26,0,0,1-5.13,5.25,5,5,0,0,1-1.34-.12,31.3,31.3,0,0,0-7.45-1c-9.52,0-19.17,4.15-28.69,8.92,3.42,6.59,4.64,12.57,4.89,21.24,0,20.26-14,52.73-35.89,64a35.81,35.81,0,0,1-16.6,4C786.11,569.92,770.86,560.64,768.29,544.41Zm44.92,12.2c17.46-9,30.16-37,30.16-55.05-.13-6.59-1-11.23-3.67-16.11-10.49,5.25-20.5,10.13-30.76,10.37C802.35,513,795.88,534,795.88,548.07c.24,8.3,1.22,11.72,6.1,11.72A25.88,25.88,0,0,0,813.21,556.61Zm19.41-79.46a35.37,35.37,0,0,0-15.74-6.6,44.33,44.33,0,0,1-3.42,14.29C819.44,483.49,825.91,480.56,832.62,477.15Z" transform="translate(-31.78 -165.32)"/><path d="M901.59,554.78A93.87,93.87,0,0,1,905,531c5.37-20.14,18.43-42.36,18.43-57.86,0-10.87-6.34-18.56-26-20.14-4.88,22.58-16,48.95-20.75,60.54a5,5,0,0,1-4.88,3.42,5.29,5.29,0,0,1-5.25-5.25,5.13,5.13,0,0,1,.36-1.95c5.38-13.8,12.82-30.15,20-57.74a14.28,14.28,0,0,1-2.44-.25c-16-2.07-21.73-8.17-21.73-14.52.61-9.65,10.5-16.36,22-16.36,7.81.37,14.65,5.13,14.65,17.34a25.23,25.23,0,0,1-.25,4.27c34.43,3,50.05,16.72,50.05,46.63A106.82,106.82,0,0,1,947.86,506c-2.69,18.07-15.51,46.15-15.51,62.63,0,11.23,4.89,17.09,12.09,17.09,14.16,0,36.5-20,59-88.14a5.08,5.08,0,0,1,5-3.66,5.27,5.27,0,0,1,5.13,5.25,4.23,4.23,0,0,1-.24,1.71c-24.66,75.44-50.54,96.92-75.69,96.92C918.32,597.75,901.59,583,901.59,554.78ZM888.9,438.45c0-5-2.08-7-4.52-7.08a15.89,15.89,0,0,0-7.69,2.2q-3.11,1.83-3.3,3.66c0,1.46,3.3,2.93,12.46,4.15l2.8.37A14.17,14.17,0,0,0,888.9,438.45Z" transform="translate(-31.78 -165.32)"/><path d="M1073.35,591.77c-6.47-12.45-11.36-27.95-14.16-40.89a63.86,63.86,0,0,1-12.58,9c-5.25,2.81-12.45,4.15-19.53,4.15a41.44,41.44,0,0,1-16.48-3C991.8,552.58,984,529,984,509.74c0-36.62,23-57.5,50.17-57.5,10.5,0,21.36,3.18,27.22,11.11,12.09-53.47,42.61-75.07,65.07-75.07l1.09.12c16,.37,28.33,10.74,28.33,26.25,0,25.39-34.43,59.32-55.06,77.14-5.86,28.69-10,56.28-10,73.73.25,7.69.37,12.21,1.47,22,1.1,8.66,1.71,17.33,5.86,17.33,6.71,0,24.17-22,44.67-101.81a5.21,5.21,0,0,1,10.26,1.23,5.11,5.11,0,0,1-.12,1.34c-22.59,88.25-41.39,109.86-55.06,109.86C1087.75,615.45,1079.57,603.73,1073.35,591.77Zm-16.12-53.35-.24-1.7c-.12-3.79-.12-7.69-.12-11.6,0-15.38.73-31.62,1.34-40.41a4.35,4.35,0,0,1-.25-1.22c-.73-10.86-6.59-20.5-13.79-20.5-6.59.24-12.82,9.27-18.8,29.78a108,108,0,0,0-4.15,29.3c0,14,3.18,26,9.4,30.88l1.83.12C1041.61,553.07,1051.13,544.77,1057.23,538.42Zm87.65-118.65a36.2,36.2,0,0,0,.37-4.88c0-6.35-2.2-10.5-6-10.5-7.56,0-21.48,18.43-34.42,69.83C1121.44,458.83,1142.07,437,1144.88,419.77Z" transform="translate(-31.78 -165.32)"/><path d="M1155.62,586.52a7.29,7.29,0,0,1-.24-1.59,5.29,5.29,0,0,1,5.25-5.25,5.09,5.09,0,0,1,5,3.67c12.45,39.18,25.27,53.22,36,53.22,14.77,0,25.64-26.61,25.64-51.88,0-22.46-8.67-43.82-30.64-43.82a39.13,39.13,0,0,0-9.65,1.22c-15.13,3.54-25.75,18.8-36.25,18.8-5.37,0-10.74-3.91-16.73-15.51-3.17-6.1-4.63-13.55-4.63-21.36a82.31,82.31,0,0,1,9.15-36.38c12.33-24,42-46.38,66.53-46.38,11.6,0,22,4.88,29,16.84a22.87,22.87,0,0,1,3.18,12c0,8.3-3.67,19-13.43,33.08a5.48,5.48,0,0,1-4.27,2.32,5.4,5.4,0,0,1-5.38-5.25,6,6,0,0,1,1-3.05c8.06-11.6,11.72-20.76,11.72-26.49,0-4.64-2.2-7.08-6.35-7.08-6.59,0-17.94,6.47-32.35,21-18.06,18.56-31.86,42.73-32.34,57.62l-.25,6.35c24.05-15.51,42.48-21.85,56.28-21.85,24.78,0,34.54,20.38,34.54,44.55,0,34.79-20.26,77.27-44.43,77.27C1186.75,648.53,1170,631.93,1155.62,586.52Z" transform="translate(-31.78 -165.32)"/><path d="M108.88,476.39v-10.6l4.8.2,4.4.2a23.38,23.38,0,0,0,4.6-.4q1.8-.41,1.8-3v-1.6l-.4-1.8-.8-1.6-.6-1.6-7.8-17.6h-42l-3.6,8.4-1.8,4.6a6.36,6.36,0,0,0-.4,1.2,4.87,4.87,0,0,1-.4,1.8,8.85,8.85,0,0,0-.8,3.6,6.44,6.44,0,0,0,4,6.4q3.6,1.4,13.6,1.4v10.4H32.28V466q11.6,0,18.8-13.6l5.6-12.6,47-105.6h6.8l49.4,112.6q4.4,9.6,6.2,12.2,5,6.79,14,6.8v10.6Zm67.6-7.2q-7.2,0-12.6-7.2-2-3.4-7.2-13.8l-48.6-110.6h-2l-46.2,103.6q-6.6,14.21-8.8,18-7,10-15.4,10v3.6h44.2v-3.6q-8.4,0-12.6-1.8-5-2.4-5-9.2a25.27,25.27,0,0,1,1.6-7.2l2.2-5.4,4.6-10.6h46.4l8.8,20,1.6,4,.4,3.8q0,4.2-5.6,5.6a43.67,43.67,0,0,1-10,.8v3.6h64.2Zm-102.4-41.4,20.2-45.4,19.8,45.4ZM94.28,391l-14.8,33.4h29.4Z" transform="translate(-31.78 -165.32)"/><path d="M108.88,476.39v-10.6l4.8.2,4.4.2a23.38,23.38,0,0,0,4.6-.4q1.8-.41,1.8-3v-1.6l-.4-1.8-.8-1.6-.6-1.6-7.8-17.6h-42l-3.6,8.4-1.8,4.6a6.36,6.36,0,0,0-.4,1.2,4.87,4.87,0,0,1-.4,1.8,8.85,8.85,0,0,0-.8,3.6,6.44,6.44,0,0,0,4,6.4q3.6,1.4,13.6,1.4v10.4H32.28V466q11.6,0,18.8-13.6l5.6-12.6,47-105.6h6.8l49.4,112.6q4.4,9.6,6.2,12.2,5,6.79,14,6.8v10.6Zm67.6-7.2q-7.2,0-12.6-7.2-2-3.4-7.2-13.8l-48.6-110.6h-2l-46.2,103.6q-6.6,14.21-8.8,18-7,10-15.4,10v3.6h44.2v-3.6q-8.4,0-12.6-1.8-5-2.4-5-9.2a25.27,25.27,0,0,1,1.6-7.2l2.2-5.4,4.6-10.6h46.4l8.8,20,1.6,4,.4,3.8q0,4.2-5.6,5.6a43.67,43.67,0,0,1-10,.8v3.6h64.2Zm-102.4-41.4,20.2-45.4,19.8,45.4ZM94.28,391l-14.8,33.4h29.4Z" transform="translate(-31.78 -165.32)" style="fill:none;stroke:#000;stroke-miterlimit:10"/><path d="M178.68,476.39v-10.6q7.8,0,9.8-3.8,1.2-2.81,1.2-10.2v-93c0-3.87-.54-6.53-1.6-8q-2-3.19-9.4-3.2V337h45.4v114.8c0,6.13.26,9.53.8,10.2q1.8,3.79,10,3.8v10.6Zm52.6-7.2q-7,0-9.4-4.6a21.72,21.72,0,0,1-1-4.6l-.4-8.2V340.39h-38.4V344q5.59,0,8.4,2.8,2.6,2.81,2.6,15v90q0,10-1.2,12.8-2.2,4.61-9.8,4.6v3.6h49.2Z" transform="translate(-31.78 -165.32)"/><path d="M178.68,476.39v-10.6q7.8,0,9.8-3.8,1.2-2.81,1.2-10.2v-93c0-3.87-.54-6.53-1.6-8q-2-3.19-9.4-3.2V337h45.4v114.8c0,6.13.26,9.53.8,10.2q1.8,3.79,10,3.8v10.6Zm52.6-7.2q-7,0-9.4-4.6a21.72,21.72,0,0,1-1-4.6l-.4-8.2V340.39h-38.4V344q5.59,0,8.4,2.8,2.6,2.81,2.6,15v90q0,10-1.2,12.8-2.2,4.61-9.8,4.6v3.6h49.2Z" transform="translate(-31.78 -165.32)" style="fill:none;stroke:#000;stroke-miterlimit:10"/><path d="M234.28,476.39v-10.6q7.8,0,9.8-3.8,1.2-2.81,1.2-10.2v-93c0-3.87-.54-6.53-1.6-8q-2-3.19-9.4-3.2V337h45.4v114.8c0,6.13.26,9.53.8,10.2q1.8,3.79,10,3.8v10.6Zm52.6-7.2q-7,0-9.4-4.6a21.72,21.72,0,0,1-1-4.6l-.4-8.2V340.39h-38.4V344q5.59,0,8.4,2.8,2.59,2.81,2.6,15v90q0,10-1.2,12.8-2.21,4.61-9.8,4.6v3.6h49.2Z" transform="translate(-31.78 -165.32)"/><path d="M234.28,476.39v-10.6q7.8,0,9.8-3.8,1.2-2.81,1.2-10.2v-93c0-3.87-.54-6.53-1.6-8q-2-3.19-9.4-3.2V337h45.4v114.8c0,6.13.26,9.53.8,10.2q1.8,3.79,10,3.8v10.6Zm52.6-7.2q-7,0-9.4-4.6a21.72,21.72,0,0,1-1-4.6l-.4-8.2V340.39h-38.4V344q5.59,0,8.4,2.8,2.59,2.81,2.6,15v90q0,10-1.2,12.8-2.21,4.61-9.8,4.6v3.6h49.2Z" transform="translate(-31.78 -165.32)" style="fill:none;stroke:#000;stroke-miterlimit:10"/><path d="M435.88,362.19a18.56,18.56,0,0,1-11.6,4,16.29,16.29,0,0,1-9.8-3.2,10.47,10.47,0,0,1-4.6-8.8l.4-3.8.4-2.8c0-.53-.47-.87-1.4-1-2.14,0-3.2,1.33-3.2,4l.4,6.2v21.4h13.4v16.6h-13.4v57q0,8,1.2,10.2,2.4,3.79,11.6,3.8v10.6h-60.2v-10.6q9.39,0,11.4-3.8c1.06-1.73,1.6-5.13,1.6-10.2v-57h-13v-16.6h13V373q0-18.19,11.2-28.8,11.19-10.2,30-10.2,13,0,20.8,5.4,7,4.8,7,12.2A12.74,12.74,0,0,1,435.88,362.19Zm-4.8-20.6q-6.21-4.2-17.8-4.2-17.4,0-27.6,9.2-10.2,9-10.2,26.4v8.6h-13v9.8h13V452q0,9.6-1.6,12.8-2.4,4.4-11.4,4.4v3.6h53.2v-3.6q-8.81,0-11.2-4.6-1.61-3.19-1.6-12.8v-60.4h13.4v-9.8h-13.4v-24.8q0-9.41,1.4-11.6a5.75,5.75,0,0,1,5-2.2q4.8,0,4.8,4.8l-.4,3.6-.4,3q0,3.6,3.6,5.8a12.55,12.55,0,0,0,7.4,2.4,16.87,16.87,0,0,0,9.2-2.8,9.39,9.39,0,0,0,4-8.2Q437.48,346.19,431.08,341.59Z" transform="translate(-31.78 -165.32)"/><path d="M435.88,362.19a18.56,18.56,0,0,1-11.6,4,16.29,16.29,0,0,1-9.8-3.2,10.47,10.47,0,0,1-4.6-8.8l.4-3.8.4-2.8c0-.53-.47-.87-1.4-1-2.14,0-3.2,1.33-3.2,4l.4,6.2v21.4h13.4v16.6h-13.4v57q0,8,1.2,10.2,2.4,3.79,11.6,3.8v10.6h-60.2v-10.6q9.39,0,11.4-3.8c1.06-1.73,1.6-5.13,1.6-10.2v-57h-13v-16.6h13V373q0-18.19,11.2-28.8,11.19-10.2,30-10.2,13,0,20.8,5.4,7,4.8,7,12.2A12.74,12.74,0,0,1,435.88,362.19Zm-4.8-20.6q-6.21-4.2-17.8-4.2-17.4,0-27.6,9.2-10.2,9-10.2,26.4v8.6h-13v9.8h13V452q0,9.6-1.6,12.8-2.4,4.4-11.4,4.4v3.6h53.2v-3.6q-8.81,0-11.2-4.6-1.61-3.19-1.6-12.8v-60.4h13.4v-9.8h-13.4v-24.8q0-9.41,1.4-11.6a5.75,5.75,0,0,1,5-2.2q4.8,0,4.8,4.8l-.4,3.6-.4,3q0,3.6,3.6,5.8a12.55,12.55,0,0,0,7.4,2.4,16.87,16.87,0,0,0,9.2-2.8,9.39,9.39,0,0,0,4-8.2Q437.48,346.19,431.08,341.59Z" transform="translate(-31.78 -165.32)" style="fill:none;stroke:#000;stroke-miterlimit:10"/><path d="M506.88,463.59q-12.81,15.6-34.2,15.6-20.61,0-34.2-15.6-12-14.4-12-36.4,0-21.6,12-36.2,13-15.6,34.2-15.6a43.69,43.69,0,0,1,34.2,15.4q12.2,14.59,12.2,36.4T506.88,463.59Zm-2.4-70.2q-11.61-14.59-31.8-14.6-20,0-31.6,14.6-11.2,13.61-11.2,33.8,0,20.4,11,33.8,11.6,14.6,31.8,14.6a42.93,42.93,0,0,0,17.8-3.6,36.47,36.47,0,0,0,13.8-11,46.22,46.22,0,0,0,6.2-9.8l2-5,1.8-6.2a76.26,76.26,0,0,0,1.2-12.8Q515.48,406.79,504.48,393.39Zm-17.8,42.2a18.84,18.84,0,0,0-.2,2.8c-.14,3.07-.2,6.07-.2,9a31.89,31.89,0,0,1-.6,6.6,27.62,27.62,0,0,1-1.4,5.8q-2.61,9-11.6,9-8.4,0-11.4-9a54.61,54.61,0,0,1-2-12.6v-1.6q-.21-3.19-.4-6.6l-.2-3.4c-.14-4.13-.2-6.93-.2-8.4a182.62,182.62,0,0,1,.8-20.2v-3.6l.6-3.6a6,6,0,0,0,.2-1.4c.13-.8.2-1.27.2-1.4a1.46,1.46,0,0,1,.2-.6q.39-1.2.6-1.8,2.79-9,11.6-9t11.8,9.8q2.4,8,2.4,31.8Q486.88,429.79,486.68,435.59Zm-3.2-12.8v-16.4a11.62,11.62,0,0,0-.4-2.6q0-6.8-2.8-10.8a8.65,8.65,0,0,0-7.6-3.8q-6.81,0-8.6,6.2-2.2,6.6-2.2,22.6v9.2q0,20.81.4,23.6,0,7,2.8,10.8a8.62,8.62,0,0,0,7.6,3.8q10.8,0,10.8-38.2Z" transform="translate(-31.78 -165.32)"/><path d="M506.88,463.59q-12.81,15.6-34.2,15.6-20.61,0-34.2-15.6-12-14.4-12-36.4,0-21.6,12-36.2,13-15.6,34.2-15.6a43.69,43.69,0,0,1,34.2,15.4q12.2,14.59,12.2,36.4T506.88,463.59Zm-2.4-70.2q-11.61-14.59-31.8-14.6-20,0-31.6,14.6-11.2,13.61-11.2,33.8,0,20.4,11,33.8,11.6,14.6,31.8,14.6a42.93,42.93,0,0,0,17.8-3.6,36.47,36.47,0,0,0,13.8-11,46.22,46.22,0,0,0,6.2-9.8l2-5,1.8-6.2a76.26,76.26,0,0,0,1.2-12.8Q515.48,406.79,504.48,393.39Zm-17.8,42.2a18.84,18.84,0,0,0-.2,2.8c-.14,3.07-.2,6.07-.2,9a31.89,31.89,0,0,1-.6,6.6,27.62,27.62,0,0,1-1.4,5.8q-2.61,9-11.6,9-8.4,0-11.4-9a54.61,54.61,0,0,1-2-12.6v-1.6q-.21-3.19-.4-6.6l-.2-3.4c-.14-4.13-.2-6.93-.2-8.4a182.62,182.62,0,0,1,.8-20.2v-3.6l.6-3.6a6,6,0,0,0,.2-1.4c.13-.8.2-1.27.2-1.4a1.46,1.46,0,0,1,.2-.6q.39-1.2.6-1.8,2.79-9,11.6-9t11.8,9.8q2.4,8,2.4,31.8Q486.88,429.79,486.68,435.59Zm-3.2-12.8v-16.4a11.62,11.62,0,0,0-.4-2.6q0-6.8-2.8-10.8a8.65,8.65,0,0,0-7.6-3.8q-6.81,0-8.6,6.2-2.2,6.6-2.2,22.6v9.2q0,20.81.4,23.6,0,7,2.8,10.8a8.62,8.62,0,0,0,7.6,3.8q10.8,0,10.8-38.2Z" transform="translate(-31.78 -165.32)" style="fill:none;stroke:#000;stroke-miterlimit:10"/><path d="M608.68,403.39a12.49,12.49,0,0,1-11,5.6q-5.2,0-11-5-2.61-2.6-4.8-2.6-4,0-6.8,5.8-1.2,2.81-1.8,4.6-.81,3.6-1.2,5.8-.41,2.4-.8,7-.4,5.21-.4,8.2v19q0,8,1.2,10.2,2,3.79,11,3.8v10.6h-57.6v-10.6q7.8,0,9.8-3.8,1.2-2.21,1.2-10.2V400c0-3.87-.54-6.53-1.6-8q-2-3.19-9.4-3.2v-10.6h45.4v13a55.81,55.81,0,0,1,11-10.8,23.91,23.91,0,0,1,14.4-5q7.4,0,11.6,4.6a15.82,15.82,0,0,1,4.2,11.4A21.5,21.5,0,0,1,608.68,403.39Zm-3.4-21.2a12.58,12.58,0,0,0-9-3.4q-7.6,0-14.6,5.8a39.78,39.78,0,0,0-5.2,5.4l-.4.6c-2.4,2.93-4.14,5.13-5.2,6.6l-3.6,5.4v-21h-38.4v3.6q5.6,0,8.4,2.8,2.6,2.6,2.6,15v48.8q0,9.79-1.2,12.8-2.2,4.61-9.8,4.6v3.6h50.6v-3.6q-8.21,0-10.6-4.6a31,31,0,0,1-1.2-4.8l-.4-8v-19q0-19.4,5.6-28.6,4-6.4,9-6.4c1.2,0,3.26,1.27,6.2,3.8a13.92,13.92,0,0,0,9.6,3.8,8.67,8.67,0,0,0,8-4.4,18.28,18.28,0,0,0,2.8-9.6A13.82,13.82,0,0,0,605.28,382.19Z" transform="translate(-31.78 -165.32)"/><path d="M608.68,403.39a12.49,12.49,0,0,1-11,5.6q-5.2,0-11-5-2.61-2.6-4.8-2.6-4,0-6.8,5.8-1.2,2.81-1.8,4.6-.81,3.6-1.2,5.8-.41,2.4-.8,7-.4,5.21-.4,8.2v19q0,8,1.2,10.2,2,3.79,11,3.8v10.6h-57.6v-10.6q7.8,0,9.8-3.8,1.2-2.21,1.2-10.2V400c0-3.87-.54-6.53-1.6-8q-2-3.19-9.4-3.2v-10.6h45.4v13a55.81,55.81,0,0,1,11-10.8,23.91,23.91,0,0,1,14.4-5q7.4,0,11.6,4.6a15.82,15.82,0,0,1,4.2,11.4A21.5,21.5,0,0,1,608.68,403.39Zm-3.4-21.2a12.58,12.58,0,0,0-9-3.4q-7.6,0-14.6,5.8a39.78,39.78,0,0,0-5.2,5.4l-.4.6c-2.4,2.93-4.14,5.13-5.2,6.6l-3.6,5.4v-21h-38.4v3.6q5.6,0,8.4,2.8,2.6,2.6,2.6,15v48.8q0,9.79-1.2,12.8-2.2,4.61-9.8,4.6v3.6h50.6v-3.6q-8.21,0-10.6-4.6a31,31,0,0,1-1.2-4.8l-.4-8v-19q0-19.4,5.6-28.6,4-6.4,9-6.4c1.2,0,3.26,1.27,6.2,3.8a13.92,13.92,0,0,0,9.6,3.8,8.67,8.67,0,0,0,8-4.4,18.28,18.28,0,0,0,2.8-9.6A13.82,13.82,0,0,0,605.28,382.19Z" transform="translate(-31.78 -165.32)" style="fill:none;stroke:#000;stroke-miterlimit:10"/><rect x="1230.67" y="298.36" width="231.36" height="34.7" transform="translate(489.49 1260.16) rotate(-66.57)"/><polygon points="1252.08 250.93 1237.38 302.75 1256.98 311.24 1283.92 264.73 1252.08 250.93"/><path d="M1272.78,493l10.93-17-11.43-5c-.54,3.71-2,11.26-3.29,18.12Q1270.88,491,1272.78,493Z" transform="translate(-31.78 -165.32)"/><path d="M1416.19,171.15c-2.75-5.93-7.12-6.59-12.1-5.24L1387,205.32l12.11,5.25Z" transform="translate(-31.78 -165.32)"/><rect x="1359.04" y="259.77" width="88.81" height="6.66" transform="translate(572.17 1280.86) rotate(-66.57)"/><polygon points="1357.42 120.12 1350.38 136.23 1346.86 125.03 1357.42 120.12"/><rect x="1406.77" y="219.23" width="8.88" height="7.31" transform="translate(613.73 1263.76) rotate(-66.57)"/><rect x="1230.67" y="298.36" width="231.36" height="34.7" transform="translate(489.49 1260.16) rotate(-66.57)"/><polygon points="1252.08 250.93 1237.38 302.75 1256.98 311.24 1283.92 264.73 1252.08 250.93"/><path d="M1272.78,493l10.93-17-11.43-5c-.54,3.71-2,11.26-3.29,18.12Q1270.88,491,1272.78,493Z" transform="translate(-31.78 -165.32)"/><path d="M1416.19,171.15c-2.75-5.93-7.12-6.59-12.1-5.24L1387,205.32l12.11,5.25Z" transform="translate(-31.78 -165.32)"/><rect x="1359.04" y="259.77" width="88.81" height="6.66" transform="translate(572.17 1280.86) rotate(-66.57)"/><polygon points="1357.42 120.12 1350.38 136.23 1346.86 125.03 1357.42 120.12"/><rect x="1406.77" y="219.23" width="8.88" height="7.31" transform="translate(613.73 1263.76) rotate(-66.57)"/><path d="M1220,505" transform="translate(-31.78 -165.32)"/><path d="M1216.77,496.11c-6.9,6.4-10.3,16.92-2.17,23.92,7.47,6.43,16.52,6.83,24.48,1,4-2.93,6.85-6.9,10.45-10.22,3.84-3.54,8.71-5.55,13-8.5,3.92-2.71,8.2-5.71,11.29-9.35,2.86-3.37,3.62-8,6.57-11.25,4.35-4.72-2.7-11.81-7.07-7.07-4,4.38-5,10.28-9.6,14.2-5.52,4.7-11.91,7.64-17.67,11.92-5.22,3.88-8.8,10.28-14.57,13.35-3.27,1.74-6,1.64-9-.58-4.63-3.4-2-7.15,1.42-10.3,4.73-4.38-2.36-11.44-7.08-7.07Z" transform="translate(-31.78 -165.32)"/></svg>