<svg width="282" height="282" viewBox="0 0 282 282" fill="none" xmlns="http://www.w3.org/2000/svg">
<circle cx="141" cy="141" r="141" fill="#98EC00"/>
<path d="M146.2 237.744C133.72 237.744 123.208 235.248 114.664 230.256C106.216 225.264 99.4 218.352 94.216 209.52C89.128 200.688 85.48 190.608 83.272 179.28C81.064 167.856 79.96 155.76 79.96 142.992C79.96 130.128 81.064 117.984 83.272 106.56C85.576 95.136 89.272 85.008 94.36 76.176C99.544 67.344 106.408 60.432 114.952 55.44C123.496 50.448 134.056 47.952 146.632 47.952C155.752 47.952 164.872 49.632 173.992 52.992C183.208 56.256 191.56 61.056 199.048 67.392C198.568 70.848 197.128 74.448 194.728 78.192C192.424 81.936 189.64 84.816 186.376 86.832C181 82.8 175.048 79.536 168.52 77.04C162.088 74.448 155.56 73.152 148.936 73.152C135.88 73.152 126.184 79.008 119.848 90.72C113.512 102.336 110.344 119.712 110.344 142.848C110.344 165.888 113.464 183.264 119.704 194.976C126.04 206.688 135.784 212.544 148.936 212.544C155.56 212.544 162.136 211.296 168.664 208.8C175.288 206.208 181.288 202.896 186.664 198.864C190.12 201.072 192.952 204 195.16 207.648C197.368 211.296 198.808 214.848 199.48 218.304C191.992 224.448 183.592 229.248 174.28 232.704C164.968 236.064 155.608 237.744 146.2 237.744ZM58.072 175.68C57.688 174.144 57.4 172.512 57.208 170.784C57.016 168.96 56.92 167.136 56.92 165.312C56.92 163.392 57.016 161.568 57.208 159.84C57.4 158.016 57.688 156.288 58.072 154.656L101.416 155.088L162.616 154.656C162.904 156.192 163.144 157.872 163.336 159.696C163.624 161.424 163.768 163.248 163.768 165.168C163.768 166.992 163.624 168.816 163.336 170.64C163.144 172.368 162.904 174.048 162.616 175.68L102.568 175.248L58.072 175.68ZM58.072 131.76C57.688 130.224 57.4 128.592 57.208 126.864C57.016 125.136 56.92 123.312 56.92 121.392C56.92 119.568 57.016 117.744 57.208 115.92C57.4 114.096 57.688 112.416 58.072 110.88L103.72 111.456L162.616 110.88C162.904 112.416 163.144 114.096 163.336 115.92C163.624 117.648 163.768 119.472 163.768 121.392C163.768 123.216 163.624 125.04 163.336 126.864C163.144 128.592 162.904 130.224 162.616 131.76L102.136 131.328L58.072 131.76Z" fill="#6CCFF6"/>
</svg>
