<svg width="282" height="282" viewBox="0 0 282 282" fill="none" xmlns="http://www.w3.org/2000/svg">
<circle cx="141" cy="141" r="141" fill="#6CCFF6"/>
<g clip-path="url(#clip0_387_209)">
<path d="M240.971 215H178.605V176.59C168.221 182.799 158.951 187.999 150.056 193.767C143.816 197.809 138.242 197.756 132.041 193.81C123.082 188.111 113.846 182.847 103.745 176.813V214.719H41.4812C41.3402 212.732 41.0581 210.585 41.0484 208.438C41.0095 195.264 40.9706 182.086 41.0387 168.913C41.1943 139.644 65.5997 125.841 91.1189 140.614C105.987 149.221 120.855 157.839 135.538 166.752C139.463 169.136 142.4 169.209 146.359 166.8C161.257 157.756 176.324 148.994 191.435 140.299C216.434 125.914 240.766 139.945 240.951 168.821C241.048 183.943 240.971 199.064 240.971 215.005V215Z" fill="#98EC00"/>
<path d="M170.536 138.297C161.578 143.532 153.086 148.65 144.399 153.424C142.775 154.315 139.935 154.664 138.432 153.85C129.313 148.892 120.422 143.517 111.556 138.341C116.161 124.397 127.27 116.4 141.345 116.502C155.197 116.604 165.955 124.46 170.531 138.297H170.536Z" fill="#98EC00"/>
<path d="M72.4381 84.7031C82.6176 84.7565 91.0413 93.0878 91.1094 103.169C91.1823 113.536 82.423 122.022 71.8934 121.785C61.4853 121.552 53.689 113.449 53.8155 102.999C53.9371 92.6468 62.0836 84.6498 72.4381 84.7031Z" fill="#98EC00"/>
<path d="M159.579 84.3057C159.744 94.5418 151.685 102.985 141.486 103.261C131.01 103.542 122.314 95.0459 122.343 84.5626C122.368 74.341 130.616 66.0727 140.854 66C151.111 65.9273 159.414 74.0406 159.579 84.3057Z" fill="#98EC00"/>
<path d="M209.552 121.809C199.329 121.756 190.929 113.473 190.852 103.377C190.774 93.0586 199.645 84.4365 210.082 84.6837C220.422 84.926 228.301 93.1313 228.189 103.537C228.073 113.909 219.955 121.867 209.552 121.809Z" fill="#98EC00"/>
</g>
<defs>
<clipPath id="clip0_387_209">
<rect width="200" height="149" fill="white" transform="translate(41 66)"/>
</clipPath>
</defs>
</svg>
