<svg width="333" height="333" viewBox="0 0 333 333" fill="none" xmlns="http://www.w3.org/2000/svg">
<circle cx="167" cy="167" r="141" fill="#757780"/>
<g clip-path="url(#clip0_387_210)">
<path d="M137.041 192.902C138.425 194.286 139.809 195.67 141.193 197.054C141.365 197.265 141.526 197.486 141.71 197.685C143.61 199.737 145.473 201.832 146.925 204.226C148.457 206.753 149.891 209.338 151.308 211.931C153.586 216.097 155.554 220.395 156.712 225.013C157.377 227.666 157.804 230.356 157.307 233.061C157.137 233.986 157.307 234.813 157.463 235.676C157.566 236.246 157.735 236.805 157.85 237.373C158.949 242.824 158.492 248.171 156.866 253.407C156.241 255.423 155.368 257.358 154.646 259.345C153.263 263.149 151.702 266.875 149.872 270.482C147.261 275.627 144.17 280.457 140.452 284.865C137.508 288.355 134.221 291.488 130.561 294.232C126.042 297.621 121.136 300.306 115.804 302.19C104.103 306.322 92.1245 306.848 79.9314 304.307C78.6639 304.043 77.4281 303.566 76.1525 303.396C72.8864 302.961 69.8094 301.944 66.8411 300.536C61.8921 298.19 57.4297 295.076 53.2921 291.516C50.4213 289.046 47.7263 286.37 44.9474 283.792C44.7515 283.611 44.5174 283.456 44.2763 283.34C43.0789 282.762 42.0308 282.019 41.4136 280.793C41.2235 280.415 41.1379 279.973 40.8989 279.633C40.0985 278.497 39.211 277.421 38.4279 276.274C33.9537 269.722 30.8996 262.573 29.2279 254.846C28.9983 253.784 28.8047 252.698 28.4141 251.691C26.9555 247.932 26.3833 244.039 26.3576 240.06C26.318 234.001 27.3027 228.102 28.9881 222.319C29.0447 222.125 29.192 221.876 29.1223 221.74C28.82 221.152 29.2071 220.731 29.3979 220.272C32.868 211.924 37.296 204.161 43.2554 197.337C43.6538 196.88 44.0355 196.408 44.4259 195.943C45.6232 194.746 46.8197 193.55 48.0169 192.352C48.1516 192.257 48.2936 192.169 48.4209 192.065C49.842 190.893 51.2316 189.681 52.687 188.553C56.5363 185.568 60.7487 183.182 65.2411 181.292C73.3138 177.899 81.7904 176.369 90.5623 176.29C99.484 176.21 108.228 177.548 116.806 180.092C119.337 180.842 121.899 181.543 124.218 182.879C125.383 183.55 126.641 184.082 127.612 185.065C127.903 185.361 128.111 185.845 128.681 185.617C128.726 185.599 128.825 185.693 128.889 185.747C129.466 186.233 130.053 186.709 130.616 187.21C132.663 189.036 134.703 190.871 136.748 192.701C136.836 192.78 136.944 192.835 137.042 192.902L137.041 192.902ZM126.76 287.218C127.051 286.882 127.499 286.416 127.88 285.9C128.08 285.628 128.246 285.281 128.286 284.95C128.736 281.238 128.734 277.511 128.413 273.779C127.762 266.203 125.857 258.902 123.236 251.766C119.436 241.416 114.327 231.705 108.37 222.429C105.904 218.589 103.26 214.859 100.635 211.121C99.3075 209.232 97.8389 207.44 96.4437 205.596C96.191 205.261 95.9633 205.103 95.5167 205.289C93.1925 206.256 90.7971 207.075 88.5375 208.172C86.4474 209.186 84.4975 210.483 82.4888 211.66C82.1681 211.848 82.0373 212.073 82.1791 212.493C82.4865 213.396 82.7001 214.331 82.9901 215.242C85.8541 224.272 88.6625 233.32 91.6103 242.323C96.375 256.871 101.213 271.398 106.813 285.664C107.872 288.36 109.155 290.97 110.324 293.626C110.47 293.957 110.691 294.113 111.036 294.08C112.3 293.959 113.589 293.943 114.822 293.68C117.215 293.167 119.318 291.933 121.464 290.824C123.317 289.865 125.101 288.81 126.759 287.219L126.76 287.218ZM79.2207 214.865C79.1321 214.919 79.0383 214.96 78.9649 215.023C77.3962 216.389 75.7757 217.702 74.2747 219.139C71.9902 221.327 69.74 223.556 67.5684 225.854C65.8171 227.709 64.2115 229.701 62.5199 231.614C62.1624 232.018 62.1043 232.404 62.2829 232.9C63.0845 235.134 63.772 237.411 64.6754 239.602C69.672 251.725 74.7076 263.832 79.7555 275.934C82.3391 282.126 85.0013 288.287 87.5625 294.489C88.0131 295.58 88.6996 296.275 89.7147 296.747C91.7171 297.679 93.8368 297.795 95.976 297.689C99.7979 297.499 103.449 296.533 107.048 295.342C107.118 295.319 107.178 295.263 107.222 295.235C106.768 294.294 106.272 293.41 105.902 292.478C103.88 287.386 101.782 282.318 99.9064 277.174C94.2093 261.548 89.0052 245.759 83.9435 229.925C82.3482 224.933 80.8071 219.925 79.2229 214.864L79.2207 214.865ZM99.6954 204.181C99.9019 204.429 100.04 204.579 100.158 204.741C102.727 208.269 105.371 211.747 107.846 215.339C112.458 222.037 116.602 229.015 120.249 236.281C124.117 243.986 127.351 251.929 129.535 260.263C131.211 266.655 132.19 273.136 132.102 279.739C132.088 280.822 132.035 281.902 131.997 283.064C132.158 282.941 132.264 282.869 132.36 282.784C134.906 280.509 137.117 277.928 139.16 275.204C141.574 271.985 143.734 268.597 145.688 265.077C146.006 264.506 146.402 263.923 146.507 263.299C146.753 261.846 146.933 260.368 146.982 258.893C147.158 253.76 146.314 248.736 144.969 243.781C142.574 234.97 138.655 226.813 133.975 218.988C130.475 213.137 126.534 207.586 122.323 202.221C122.159 202.013 121.832 201.842 121.567 201.816C120.703 201.729 119.832 201.687 118.964 201.68C113.467 201.638 108.075 202.429 102.722 203.52C101.744 203.72 100.772 203.945 99.6947 204.182L99.6954 204.181ZM41.6096 225.474C42.0412 225.62 42.3944 225.736 42.7448 225.859C47.9638 227.695 53.3383 228.779 58.8086 229.406C59.1157 229.441 59.2975 229.357 59.497 229.124C60.629 227.8 61.7682 226.483 62.9307 225.185C67.5148 220.066 72.6006 215.492 78.067 211.333C78.1894 211.239 78.1971 210.998 78.2603 210.827C78.3285 210.641 78.3441 210.389 78.4772 210.283C79.0695 209.807 79.6895 209.365 80.3087 208.925C83.3792 206.745 86.6945 205.005 90.1732 203.564C91.6085 202.97 93.0436 202.366 94.5172 201.879C95.7974 201.456 97.1529 201.256 98.4396 200.848C106.401 198.331 114.511 197.189 122.896 198.418C123.031 198.437 123.25 198.375 123.315 198.276C124.371 196.645 125.435 195.008 126.072 193.158C126.623 191.559 126.709 189.924 125.803 188.366C125.611 188.037 125.443 187.7 124.995 187.572C119.34 185.963 113.605 184.856 107.747 184.466C97.6679 183.794 87.9643 185.266 78.6836 189.148C72.4413 191.76 66.7926 195.318 61.6402 199.678C57.359 203.3 53.5674 207.382 50.1458 211.812C47.7074 214.969 45.5098 218.295 43.5629 221.782C42.8911 222.986 42.2723 224.218 41.6103 225.474L41.6096 225.474ZM31.8205 225.183C31.7654 225.381 31.7173 225.543 31.6758 225.707C30.5639 230.101 29.894 234.565 29.8275 239.115C29.7767 242.609 30.1353 246.057 31.2631 249.407C31.6371 250.518 32.0455 251.592 33.1722 252.191C33.3661 252.295 33.5308 252.455 33.7105 252.586C35.1318 253.622 36.4829 254.749 38.1206 255.473C42.5088 257.409 47.1018 258.409 51.8381 258.803C56.2913 259.173 60.7296 258.957 65.1657 258.643C66.2652 258.565 67.3662 258.507 68.5207 258.435C68.3029 257.828 68.1224 257.259 67.8971 256.708C66.3435 252.915 64.7531 249.137 63.2277 245.333C61.619 241.324 59.9216 237.345 58.7713 233.172C58.7335 233.033 58.5152 232.871 58.3624 232.848C57.5031 232.711 56.6363 232.626 55.775 232.502C47.9505 231.37 40.3902 229.294 33.2125 225.861C32.7543 225.641 32.299 225.416 31.8197 225.182L31.8205 225.183ZM76.4328 278.057C76.4076 277.967 76.3851 277.852 76.3438 277.745C74.3081 272.585 72.2687 267.426 70.2395 262.264C70.1312 261.987 69.9672 261.92 69.7002 261.931C68.5947 261.977 67.4861 261.978 66.383 262.054C61.7963 262.365 57.2087 262.646 52.6011 262.34C47.0848 261.973 41.7256 260.894 36.6443 258.581C35.5227 258.07 34.4338 257.485 33.295 256.915C33.3212 257.039 33.3364 257.136 33.3631 257.23C34.3395 260.758 35.64 264.167 37.2559 267.459C38.9026 270.813 40.8614 273.979 43.1624 276.93C43.3231 277.135 43.6067 277.336 43.853 277.369C51.5418 278.355 59.2461 279.086 66.9939 279.193C70.1972 279.237 73.342 278.98 76.4328 278.057ZM103.918 180.815C103.919 180.76 103.92 180.705 103.92 180.649C101.207 180.393 98.4964 180.065 95.7785 179.896C88.826 179.468 81.9577 179.996 75.2088 181.662C66.7441 183.751 59.1613 187.56 52.4984 193.137C49.7026 195.477 47.1633 198.074 44.834 200.885C42.1207 204.159 39.7369 207.657 37.6264 211.346C35.8971 214.368 34.3602 217.489 33.0026 220.701C32.9115 220.916 32.8143 221.082 33.0165 221.338C34.1884 222.822 35.9292 223.278 37.5039 224.005C37.5772 223.923 37.606 223.903 37.621 223.873C40.9456 217.48 45.0483 211.623 49.783 206.216C52.6511 202.941 55.7488 199.893 59.1038 197.107C62.0465 194.662 65.1347 192.427 68.4136 190.453C78.2157 184.551 88.8528 181.326 100.36 180.89C101.545 180.845 102.732 180.839 103.918 180.815L103.918 180.815ZM78.426 281.891C68.1135 283.435 57.8014 282.351 47.3791 281.339C47.5759 281.536 47.6918 281.654 47.8106 281.77C49.0806 282.999 50.3391 284.24 51.6249 285.451C54.9745 288.605 58.5321 291.499 62.3745 294.033C65.5997 296.16 68.974 297.99 72.6792 299.118C75.6338 300.017 78.6229 300.374 81.6475 299.59C82.9998 299.239 84.2492 298.673 85.2883 297.942C82.9825 292.547 80.7031 287.218 78.426 281.891ZM130.346 191.543C130.039 192.47 129.788 193.365 129.448 194.225C128.658 196.23 127.613 198.103 126.428 199.895C126.23 200.194 126.17 200.424 126.443 200.739C127.083 201.476 127.733 202.212 128.289 203.012C130.438 206.1 132.611 209.174 134.659 212.329C136.491 215.153 138.176 218.071 139.909 220.959C140.104 221.283 140.277 221.289 140.498 221.071C140.799 220.776 141.124 220.486 141.347 220.136C143.419 216.888 144.675 213.32 145.359 209.527C145.475 208.883 145.351 208.343 145.049 207.775C143.711 205.26 141.919 203.076 140.04 200.964C137.049 197.6 133.766 194.531 130.346 191.543L130.346 191.543ZM148.332 213.553C147.659 215.525 147.088 217.477 146.326 219.349C145.465 221.467 144.193 223.305 142.132 224.272C143.968 229.218 145.792 234.13 147.624 239.063C147.741 238.962 147.868 238.856 147.991 238.748C149.681 237.24 151.363 235.721 153.068 234.23C153.458 233.889 153.695 233.507 153.805 233.005C154.206 231.175 154.038 229.345 153.713 227.524C153.172 224.486 152.125 221.599 150.851 218.791C150.049 217.023 149.17 215.289 148.332 213.554L148.332 213.553ZM84.997 302.221C85.076 302.234 85.2362 302.265 85.397 302.286C93.8189 303.382 102.136 302.996 110.312 300.806C119.456 298.357 127.396 293.808 134.166 287.241C138.072 283.454 141.354 279.171 144.208 274.547C144.429 274.188 144.644 273.825 144.858 273.461C145.057 273.12 145.252 272.776 145.448 272.433C145.342 272.446 145.285 272.485 145.25 272.541C142.29 277.134 138.996 281.453 134.944 285.145C133.721 286.261 132.45 287.325 130.875 287.946C130.729 288.004 130.597 288.133 130.496 288.258C129.289 289.761 127.914 291.098 126.254 292.072C124.203 293.276 122.108 294.412 119.98 295.48C117.446 296.752 114.766 297.562 111.876 297.582C111.397 297.586 110.9 297.698 110.448 297.861C106.164 299.403 101.816 300.699 97.2388 301.09C94.3314 301.339 91.4539 301.221 88.683 300.089C88.5661 300.041 88.3745 300.055 88.27 300.122C87.1626 300.819 86.0647 301.534 84.9978 302.222L84.997 302.221ZM154.406 237.714C154.095 237.976 153.871 238.153 153.659 238.343C152.312 239.552 150.945 240.738 149.628 241.979C148.313 243.219 148.294 242.663 148.78 244.684C149.829 249.05 150.488 253.459 150.491 257.946C150.491 258.462 150.539 258.98 150.565 259.496C154.132 252.727 155.924 245.606 154.407 237.714L154.406 237.714Z" fill="#6CCFF6"/>
</g>
<path d="M284.95 140.681C264.723 160.908 234.244 166.818 209.152 154.606C185.755 143.22 173.414 123.987 172.254 98.0124C171.501 81.1421 176.85 65.9479 187.727 53.075C204.146 33.6456 225.207 25.2641 250.528 28.7093C267.56 31.027 281.514 39.3649 291.767 53.0198C305.229 70.9477 308.354 91.0447 302.007 112.525C298.842 123.235 292.971 132.66 284.951 140.68L284.95 140.681ZM173.868 105.109C174.573 105.146 175.311 105.064 175.977 105.246C177.186 105.574 177.776 105.168 178.355 104.066C181.54 97.984 184.824 91.954 188.062 85.9003C188.412 85.2462 188.942 84.5614 188.963 83.8774C189.181 76.7861 190.107 69.795 192.46 63.1021C193.345 60.5851 193.328 58.7802 191.187 57.0675C189.986 56.1082 188.981 54.9063 187.701 53.6262C185.963 56.1695 184.217 58.5009 182.705 60.9748C174.707 74.0659 171.509 88.2642 173.123 103.527C173.18 104.071 173.62 104.575 173.882 105.099C173.342 105.463 173.334 105.464 173.489 106.406C175.855 120.847 182.292 133.16 192.991 143.148C203.519 152.977 216.066 158.463 230.373 159.933C230.936 159.99 231.684 159.855 232.093 159.51C233.186 158.588 234.178 157.535 235.129 156.462C235.386 156.172 235.526 155.581 235.429 155.204C234.187 150.388 232.881 145.589 231.629 140.774C231.519 140.351 231.667 139.862 231.7 139.344C231.717 139.355 231.649 139.288 231.567 139.259C223.313 136.419 215.726 132.326 208.706 127.15C208.28 126.837 207.615 126.645 207.092 126.697C201.693 127.234 196.301 127.848 190.903 128.404C189.796 128.518 189.272 129.019 189.085 130.13C188.766 132.036 188.308 133.918 187.908 135.811L187.56 135.744C187.901 133.768 188.19 131.78 188.606 129.82C188.794 128.932 188.74 128.25 188.233 127.439C184.588 121.615 181.089 115.691 178.73 109.215C177.933 107.023 177.1 105.35 174.501 105.331C174.29 105.329 174.08 105.187 173.869 105.112L173.868 105.109ZM231.767 86.1931L231.635 85.7606C224.148 90.1023 216.656 94.4361 209.186 98.8086C208.829 99.0187 208.5 99.5391 208.439 99.9567C207.213 108.394 206.871 116.85 208.123 125.316C208.205 125.866 208.56 126.538 209.001 126.846C215.878 131.634 223.188 135.614 231.043 138.583C232.336 139.072 233.368 139.016 234.575 138.363C241.281 134.731 248.028 131.178 254.739 127.554C255.114 127.351 255.484 126.768 255.508 126.342C255.955 118.231 256.358 110.119 256.73 102.006C256.748 101.592 256.523 100.996 256.207 100.762C248.893 95.3858 241.417 90.273 232.899 86.9141C232.491 86.7532 232.143 86.4358 231.767 86.1914V86.1931ZM191.564 87.9692C196.414 92.4488 201.206 96.11 206.843 98.5597C207.672 98.9202 208.269 98.8455 209.066 98.3822C216.434 94.1073 223.848 89.9097 231.217 85.6375C231.747 85.3307 232.286 84.6661 232.405 84.0814C233.894 76.7827 235.292 69.4655 236.752 62.1606C236.923 61.3043 236.777 60.7399 236.065 60.2018C230.909 56.3121 225.721 52.4601 220.664 48.4429C218.929 47.0643 217.547 47.0114 215.651 48.0874C208.951 51.8947 202.169 55.556 195.408 59.2542C194.229 59.8985 193.629 60.8656 193.231 62.1342C191.174 68.6786 190.06 75.3795 189.494 82.207C189.281 84.7759 189.463 86.9369 191.565 87.9666L191.564 87.9692ZM266.511 92.1463C266.413 92.0478 266.588 92.2562 266.489 92.156C263.73 94.9146 260.677 97.3453 257.963 100.149C257.556 100.571 257.257 101.302 257.262 101.888C257.331 109.888 257.084 117.871 255.99 125.804C255.832 126.953 256.184 127.512 257.106 128.047C262.178 130.995 267.629 133.065 273.143 134.983C273.555 135.126 274.208 134.959 274.605 134.708C281.54 130.312 287.821 125.122 293.349 119.044C293.777 118.574 294.149 117.928 294.257 117.311C295.739 108.866 296.444 100.392 294.926 91.8694C294.853 91.4526 294.482 90.9111 294.111 90.7528C288.58 88.398 283.02 86.1172 277.487 83.7712C276.473 83.3412 275.783 83.5144 274.994 84.2669C272.202 86.9315 269.344 89.5257 266.512 92.1454L266.511 92.1463ZM267.624 40.8701C263.234 37.5255 258.853 34.1685 254.442 30.8494C253.703 30.2929 252.884 29.6422 252.019 29.4822C244.166 28.024 236.298 28.0631 228.446 29.522C228.061 29.5932 227.573 29.864 227.397 30.1858C224.649 35.2249 221.96 40.2967 219.218 45.3403C218.698 46.2959 218.956 46.7539 219.807 47.3817C225.294 51.4271 230.722 55.5507 236.172 59.6462C236.411 59.8255 236.667 60.1253 236.917 60.128C239.359 60.1536 241.8 60.116 244.242 60.1179C250.357 60.1209 256.451 59.9261 262.467 58.6324C263.813 58.3432 264.701 57.7621 265.275 56.4777C266.501 53.7348 267.905 51.071 269.119 48.3228C270.969 44.132 270.927 44.1126 267.624 40.8701ZM271.25 44.9197C269.277 49.1299 267.353 53.2153 265.458 57.3147C265.331 57.5916 265.308 58.0242 265.433 58.2949C269.143 66.3606 272.872 74.4184 276.632 82.4612C276.805 82.8313 277.258 83.1558 277.656 83.3246C283.224 85.6934 288.805 88.0315 294.383 90.3765C294.737 90.5251 295.096 90.6641 295.448 90.8047C295.631 90.57 295.769 90.4434 295.846 90.2887C297.942 86.0759 300.06 81.8754 302.087 77.6309C302.38 77.0181 302.422 76.1407 302.247 75.4734C300.363 68.2835 297.21 61.6703 293.001 55.5519C292.232 54.4327 291.388 53.4779 290.061 52.9186C284.108 50.4109 278.19 47.8223 272.255 45.2706C271.854 45.0982 271.429 44.9839 271.247 44.9215L271.25 44.9197ZM262.396 153.272C263.645 153.732 264.86 154.187 266.375 153.418C280.773 146.115 291.452 135.216 298.353 120.621C298.531 120.242 298.671 119.844 298.872 119.349C297.653 119.167 296.619 119.079 295.622 118.845C294.63 118.613 293.978 118.866 293.302 119.658C288.133 125.722 282.027 130.681 275.24 134.834C274.773 135.12 274.357 135.717 274.201 136.253C272.89 140.779 270.654 144.776 267.44 148.208C265.824 149.935 264.105 151.563 262.396 153.272ZM232.298 160.111C243.286 160.837 253.874 158.947 264.332 154.336C263.382 154.127 262.782 153.976 262.174 153.868C261.568 153.76 260.941 153.577 260.343 153.635C252.759 154.367 245.179 155.134 237.599 155.905C237.124 155.953 236.523 155.961 236.214 156.242C234.878 157.462 233.63 158.777 232.297 160.11L232.298 160.111Z" fill="#6CCFF6" stroke="#6CCFF6" stroke-width="2"/>
<g clip-path="url(#clip1_387_210)">
<path d="M286.372 286.334C260.878 312.109 218.584 312.264 193.108 285.718C168.638 260.219 168.991 218.708 195.574 193.313C221.3 168.736 262.746 168.878 287.875 195.273C312.088 220.704 311.558 261.343 286.371 286.333L286.372 286.334ZM186.122 236.496C190.772 240.86 195.931 244.541 201.215 248.023C209.288 253.345 218.027 257.423 226.922 261.17C233.878 264.101 240.965 266.632 248.42 267.987C250.04 268.281 251.708 268.374 253.358 268.429C253.851 268.446 254.632 268.163 254.819 267.789C256.541 264.34 258.198 260.859 259.786 257.349C260.24 256.344 260.482 255.224 260.672 254.131C260.733 253.776 260.388 253.045 260.117 252.986C256.761 252.25 253.888 250.518 251.119 248.634C246.273 245.34 241.694 241.789 238.969 236.338C233.231 224.86 228.23 213.152 226.213 200.329C225.757 197.428 224.713 194.559 223.534 191.852C222.271 188.949 220.404 186.365 217.02 185.543C216.205 185.344 215.212 185.099 214.504 185.383C212.797 186.07 211.21 187.058 209.575 187.925C202.198 191.835 196.454 197.565 191.351 204.066C186.554 210.177 183.724 217.239 181.064 224.405C180.085 227.043 180.632 229.504 182.195 231.702C183.39 233.38 184.803 234.901 186.119 236.492L186.122 236.496ZM219.897 182.865C220.45 183.334 220.766 183.79 221.184 183.922C222.937 184.476 224.006 185.771 224.893 187.236C227.48 191.511 228.91 196.225 229.761 201.101C230.925 207.773 232.48 214.319 235.023 220.609C237.262 226.147 239.793 231.562 243.111 236.511C247.315 242.778 253.361 246.846 260.291 249.657C260.707 249.825 261.178 249.857 261.624 249.942C262.344 250.079 262.759 249.818 263.019 249.088C263.911 246.59 264.998 244.155 265.768 241.623C269.605 229 272.748 216.255 272.316 202.915C272.188 198.972 272.131 195.026 270.739 191.27C269.988 189.245 269.175 187.109 267.281 185.963C264.996 184.58 262.565 183.306 260.033 182.483C248.155 178.624 236.128 178.217 224.018 181.544C222.71 181.902 221.432 182.369 219.899 182.863L219.897 182.865ZM179.61 234.07C179.179 238.488 178.555 242.743 179.202 246.996C181.262 260.55 187.185 272.314 195.899 282.758C198.379 285.73 201.506 287.082 205.363 286.5C207.861 286.123 210.34 285.615 212.818 285.12C215.462 284.593 218.07 283.762 220.734 283.504C228.782 282.721 236.846 282.104 244.912 281.545C246.357 281.445 247.234 281.04 247.954 279.762C249.374 277.246 250.969 274.83 252.546 272.287C252.102 272.148 251.798 272.03 251.485 271.956C239.061 269.103 227.025 265.219 215.479 259.709C204.709 254.569 194.739 248.345 185.906 240.335C183.77 238.399 181.811 236.269 179.61 234.068L179.61 234.07ZM265.889 251.263C268.998 251.409 271.803 251.764 274.575 250.964C280.742 249.183 285.371 245.339 289.113 240.231C292.357 235.802 294.376 230.75 296.79 225.89C298.15 223.151 298.133 220.573 297.029 217.767C292.799 207.016 285.57 198.603 276.754 191.416C275.701 190.558 274.404 189.996 273.134 189.248C273.066 189.617 273.023 189.705 273.04 189.778C273.116 190.098 273.202 190.418 273.297 190.734C274.811 195.851 275.616 201.041 275.436 206.421C274.982 220.031 271.879 233.092 267.449 245.901C266.858 247.607 266.435 249.371 265.889 251.263ZM257.65 269.015C258.079 269.154 258.309 269.243 258.548 269.301C267.799 271.526 277.118 271.55 286.438 269.827C288.807 269.389 291.08 268.366 293.352 267.494C293.898 267.285 294.488 266.676 294.676 266.123C296.041 262.084 297.482 258.055 298.552 253.934C299.34 250.896 299.686 247.734 300.077 244.61C300.608 240.366 300.962 236.102 300.258 231.845C300.082 230.781 299.702 229.751 299.376 228.561C299.133 228.835 299.062 228.885 299.032 228.953C298.886 229.295 298.751 229.643 298.613 229.991C295.474 237.846 291.256 244.964 284.472 250.267C279.993 253.768 274.953 255.653 269.195 255.024C267.606 254.851 266.044 254.426 264.414 254.108C262.187 259.017 259.949 263.95 257.651 269.016L257.65 269.015ZM291.104 272.034C280.2 275.076 269.32 274.956 258.406 272.786C256.005 272.309 256.022 272.269 254.764 274.388C253.182 277.054 251.582 279.71 249.991 282.368C250.177 282.531 250.257 282.625 250.358 282.687C254.383 285.191 256.584 290.187 255.73 294.86C255.51 296.065 255.313 297.275 255.104 298.494C265.98 299.388 289.622 281.948 291.105 272.035L291.104 272.034ZM204.24 289.511C204.762 289.955 205.03 290.266 205.368 290.456C208.418 292.187 211.376 294.131 214.567 295.552C217.989 297.075 221.618 298.152 225.192 299.319C227.479 300.067 229.627 299.582 231.484 298.019C233.704 296.15 236.032 294.382 238.07 292.328C240.045 290.335 241.738 288.059 243.489 285.853C243.775 285.492 243.853 284.827 243.752 284.365C243.712 284.182 242.913 284.073 242.465 284.091C231.964 284.537 221.555 285.755 211.27 287.983C209.013 288.472 206.758 288.964 204.241 289.512L204.24 289.511ZM233.796 300.604C233.905 300.678 234.033 300.841 234.165 300.842C237.962 300.934 241.772 301.245 245.551 301.008C248.334 300.835 250.75 299.55 251.347 296.334C251.384 296.133 251.495 295.949 251.568 295.755C253.188 291.413 252.546 288.753 249.185 285.599C248.515 284.969 248.124 284.985 247.506 285.719C245.022 288.666 242.522 291.603 239.919 294.443C237.992 296.548 235.897 298.5 233.796 300.602L233.796 300.604Z" fill="#98EC00"/>
</g>
<g clip-path="url(#clip2_387_210)">
<path d="M44.7931 48.4979C46.0992 47.1918 47.406 45.885 48.7121 44.5789C48.8475 44.4834 48.9879 44.3943 49.1169 44.291C51.2566 42.593 53.3458 40.8273 55.5447 39.2099C58.7519 36.8506 62.2434 34.9553 65.8702 33.3221C70.4241 31.2707 75.1511 29.7501 80.0527 28.7661C85.0719 27.7586 90.1352 27.3253 95.252 27.4956C100.32 27.6652 105.298 28.4369 110.188 29.753C115.404 31.1567 120.366 33.1996 125.075 35.8538C128.809 37.958 132.311 40.392 135.562 43.1859C136.133 43.6769 136.708 44.1621 137.282 44.6502C138.588 45.9563 139.894 47.2631 141.201 48.5692C141.285 48.691 141.362 48.8207 141.457 48.934C142.313 49.9466 143.189 50.942 144.025 51.9695C146.785 55.359 149.143 59.0123 151.16 62.8907C153.617 67.6134 155.471 72.5563 156.709 77.7344C158.016 83.1982 158.571 88.7368 158.453 94.3496C158.352 99.1991 157.71 103.977 156.567 108.686C155.636 112.522 154.356 116.246 152.737 119.849C150.178 125.543 146.868 130.763 142.792 135.495C142.325 136.037 141.873 136.591 141.413 137.139L137.423 141.129C137.238 141.271 137.049 141.408 136.868 141.556C135.006 143.067 133.204 144.66 131.273 146.075C127.122 149.114 122.649 151.595 117.89 153.57C113.079 155.568 108.099 156.935 102.958 157.72C99.1369 158.305 95.2927 158.536 91.4264 158.447C86.1194 158.324 80.9036 157.576 75.7797 156.201C70.7562 154.853 65.9629 152.926 61.4112 150.402C57.4095 148.183 53.6779 145.58 50.2157 142.591C49.6463 142.1 49.0699 141.616 48.497 141.129L44.7205 137.352C44.625 137.217 44.536 137.078 44.4326 136.949C42.6962 134.775 40.8963 132.649 39.2367 130.419C36.8383 127.196 34.9244 123.676 33.2734 120.018C31.5591 116.222 30.2252 112.293 29.2625 108.236C27.888 102.443 27.2902 96.5762 27.489 90.6243C27.6578 85.5731 28.3953 80.6073 29.7292 75.7364C31.1515 70.5433 33.2 65.6033 35.8457 60.9097C37.8016 57.4389 40.0511 54.1747 42.5849 51.1037C43.3096 50.2251 44.0564 49.3658 44.7931 48.4979ZM90.6091 131.62C85.0249 110.752 87.3385 90.5559 95.1095 70.713C81.3474 68.7463 67.7058 66.0622 54.1175 62.5906C53.0223 65.8847 51.8509 69.0997 50.8925 72.3753C49.8672 75.8803 48.9444 79.4224 48.1578 82.9879C47.3897 86.4709 46.8132 89.9973 46.2261 93.5172C45.8876 95.5501 45.6233 97.6015 45.4508 99.6551C45.1309 103.465 44.7967 107.278 44.6678 111.096C44.5552 114.443 44.6364 117.802 44.7796 121.148C44.9001 123.944 45.2285 126.73 45.4843 129.519C45.5043 129.732 45.644 129.958 45.7829 130.135C46.3522 130.861 46.9101 131.6 47.5358 132.277C48.0253 132.806 48.3801 133.472 49.134 133.754C54.6398 135.818 60.2533 137.392 66.176 137.631C69.0019 137.745 71.8093 137.59 74.6018 137.17C77.846 136.682 81.0047 135.853 84.0737 134.69C86.3481 133.827 88.5463 132.803 90.6092 131.621L90.6091 131.62ZM112.593 137.244C112.636 137.334 112.655 137.4 112.695 137.452C114.975 140.488 117.702 142.973 121.175 144.621C122.178 145.097 123.002 145.233 123.871 144.496C123.883 144.485 123.901 144.481 123.916 144.472C126.875 142.647 129.694 140.628 132.329 138.361C135.713 135.448 138.722 132.176 141.361 128.579C144.508 124.292 147.071 119.674 148.977 114.701C150.36 111.092 151.396 107.388 152.08 103.583C152.712 100.076 153.035 96.5421 153.038 92.9829C153.042 88.947 152.696 84.9368 151.825 80.9922C151.345 78.8175 150.719 76.6749 150.152 74.5194C150.093 74.2949 150.027 74.1061 149.689 74.1147C147.561 74.1717 145.432 74.2337 143.303 74.2273C140.033 74.218 136.764 74.1596 133.494 74.1118C132.462 74.0969 131.429 74.0505 130.356 74.017C134.327 85.4071 134.786 96.8833 131.561 108.456C128.33 120.055 121.932 129.604 112.59 137.244L112.593 137.244ZM109.552 132.55C109.744 132.432 109.79 132.412 109.828 132.38C113.222 129.484 116.324 126.318 118.965 122.705C121.457 119.297 123.379 115.595 124.865 111.657C126.537 107.221 127.573 102.635 128.015 97.9165C128.373 94.0959 128.408 90.2716 127.924 86.4617C127.381 82.1914 126.161 78.1049 124.428 74.1674C124.282 73.8346 124.096 73.69 123.726 73.6665C121.969 73.5553 120.213 73.4142 118.457 73.2881C117.695 73.2332 116.932 73.1869 116.116 73.1335C116.215 73.3708 116.292 73.5361 116.355 73.7057C117.156 75.8718 118.05 78.0087 118.733 80.2119C119.687 83.2944 120.205 86.4702 120.448 89.6966C120.646 92.3466 120.62 94.9908 120.413 97.6322C120.163 100.8 119.529 103.903 118.607 106.944C117.013 112.204 114.603 117.068 111.319 121.473C110.128 123.07 108.753 124.53 107.479 126.066C107.341 126.232 107.189 126.534 107.25 126.695C107.985 128.633 108.761 130.557 109.552 132.551V132.55ZM49.1283 61.2981C49.0563 61.2574 49.0178 61.2247 48.9722 61.2118C47.183 60.7038 45.386 60.2193 43.6075 59.6763C43.1407 59.5331 42.9206 59.6535 42.6854 60.0283C40.8556 62.9383 39.1897 65.931 37.828 69.0954C35.4859 74.54 33.971 80.199 33.2855 86.0818C32.8053 90.2074 32.7518 94.3409 33.1316 98.4773C33.5071 102.565 34.224 106.594 35.5172 110.491C36.3866 113.109 37.4547 115.662 38.4437 118.24C38.5748 118.582 38.7586 118.905 38.9232 119.234C39.0793 119.544 39.2424 119.851 39.4035 120.159C38.9496 99.9002 42.1332 80.2867 49.129 61.2988L49.1283 61.2981ZM95.0155 128.737C95.1929 128.662 95.2642 128.648 95.3141 128.608C97.2315 127.061 99.1511 125.516 101.052 123.949C101.17 123.852 101.209 123.567 101.175 123.389C100.814 121.445 100.362 119.516 100.065 117.562C99.1754 111.71 99.1504 105.835 99.7062 99.9494C100.188 94.8419 101.158 89.832 102.62 84.9154C103.621 81.5529 104.859 78.2802 106.32 75.0915C106.743 74.1702 107.195 73.2617 107.638 72.3397C107.557 72.3055 107.514 72.2749 107.468 72.2692C105.221 71.9984 102.972 71.7376 100.726 71.4554C100.362 71.4098 100.206 71.5687 100.096 71.8659C99.0599 74.6448 97.902 77.3845 97.017 80.2105C96.0615 83.2609 95.2535 86.369 94.5794 89.4942C93.9474 92.4207 93.5127 95.3962 93.1073 98.3654C92.8422 100.305 92.7596 102.272 92.6385 104.228C92.3962 108.134 92.4147 112.045 92.8259 115.936C93.1194 118.715 93.5505 121.482 94.0037 124.241C94.2495 125.741 94.6671 127.211 95.0162 128.738L95.0155 128.737ZM123.285 41.091C114.871 36.2329 105.952 33.5608 96.4042 33.0001C86.8383 32.4378 77.6671 34.1059 68.8957 37.9708C76.2606 36.7537 83.572 37.0024 90.8293 38.7132C98.0915 40.4248 104.749 43.4709 110.799 47.8894C114.427 44.7179 118.456 42.333 123.284 41.091L123.285 41.091ZM110.983 76.786C104.938 90.4263 102.816 104.575 105.347 119.45C114.408 109.029 117.783 90.1769 110.983 76.786ZM99.4668 62.0719C99.2209 62.0313 99.0407 61.9978 98.859 61.9729C96.8496 61.6921 94.8359 61.4356 92.8308 61.1278C90.0633 60.7031 87.2951 60.2777 84.5396 59.7825C80.1176 58.9873 75.692 58.1957 71.292 57.2872C66.8927 56.3794 62.522 55.3348 58.142 54.3351C57.8391 54.266 57.7223 54.35 57.6125 54.608C57.4023 55.1003 57.1551 55.577 56.9356 56.0658C56.6649 56.6687 56.4062 57.2765 56.1276 57.9156C69.7557 61.4484 83.4929 64.0799 97.3512 66.0016C98.0559 64.6927 98.7435 63.4151 99.4668 62.0719ZM107.359 51.1472C101.845 46.9032 95.7722 43.9255 88.9973 42.4306C82.2345 40.9378 75.4817 41.0098 68.7425 42.5816C81.8027 43.178 93.3581 47.6065 103.298 56.0887C104.655 54.437 105.984 52.8195 107.358 51.1479L107.359 51.1472ZM60.157 49.6793C71.7737 52.5245 83.4181 54.7519 95.3026 56.4542C95.1494 56.3195 95.106 56.2761 95.0582 56.2397C92.7824 54.5139 90.3512 53.0361 87.7874 51.7863C83.6625 49.7762 79.338 48.3903 74.7884 47.7255C70.3778 47.0814 65.9671 47.0771 61.5551 47.6927C61.4104 47.7134 61.2244 47.8053 61.1532 47.9222C60.814 48.4779 60.5076 49.0537 60.1577 49.6786L60.157 49.6793ZM56.9278 141.068C57.1152 141.152 57.2955 141.26 57.4907 141.32C60.2576 142.177 63.0187 143.056 65.7969 143.874C69.5905 144.993 73.4796 145.418 77.4271 145.372C82.4006 145.315 87.2288 144.42 91.9352 142.84C92.9627 142.496 93.9681 142.082 94.9742 141.702C94.1705 140.079 93.3888 138.5 92.6107 136.926C81.1579 142.332 69.2691 143.507 56.9285 141.067L56.9278 141.068ZM104.261 151.992C104.147 151.878 104.117 151.837 104.077 151.81C101.716 150.195 99.6948 148.223 97.9113 145.995C97.8337 145.899 97.5821 145.852 97.4553 145.899C94.593 146.969 91.6659 147.807 88.6689 148.407C84.7884 149.183 80.8708 149.541 76.9162 149.458C75.2787 149.424 73.6434 149.298 72.0067 149.213C82.4683 153.098 93.1864 154.01 104.261 151.992ZM134.104 49.2903C134.12 49.2397 134.136 49.1891 134.153 49.1385C132.805 48.0084 131.459 46.8762 130.105 45.7546C130.011 45.677 129.858 45.6527 129.729 45.6421C127.862 45.4874 126.015 45.5808 124.186 46.0119C121.722 46.5926 119.488 47.6771 117.401 49.0801C116.502 49.6836 115.649 50.3527 114.744 51.0161L120.021 56.2932C124.105 52.8217 128.725 50.295 134.104 49.291L134.104 49.2903ZM125.929 64.5609C126.65 65.9432 127.34 67.2821 128.053 68.6081C128.123 68.7371 128.328 68.8618 128.476 68.8682C130.738 68.9587 133.001 69.0627 135.265 69.0962C137.897 69.1361 140.53 69.124 143.161 69.109C144.768 69.0998 146.374 69.0442 148.022 69.0086C147.97 68.8219 147.954 68.6872 147.897 68.5718C147.427 67.6084 146.89 66.6728 146.496 65.6803C146.235 65.0233 145.821 64.9606 145.226 64.9549C140.414 64.9079 135.601 64.8466 130.79 64.7632C129.181 64.7354 127.575 64.6314 125.929 64.5601L125.929 64.5609ZM123.896 59.2132C123.92 59.2731 123.943 59.3336 123.967 59.3928C130.304 59.7761 136.647 59.9592 143.042 59.8702C142.979 59.7277 142.963 59.6585 142.923 59.6072C141.444 57.6599 139.966 55.711 138.474 53.7736C138.392 53.6668 138.186 53.5898 138.046 53.6005C136.977 53.6846 135.903 53.7401 134.845 53.9055C132.433 54.2831 130.194 55.188 128.107 56.4243C126.66 57.2815 125.297 58.2783 123.896 59.2132ZM108.741 140.141C106.644 141.359 104.586 142.555 102.514 143.759C102.599 143.866 102.677 143.977 102.765 144.077C104.983 146.58 107.613 148.475 110.796 149.58C111.608 149.861 112.367 149.963 113.156 149.558C113.422 149.422 113.724 149.358 114.004 149.246C115.099 148.807 116.19 148.363 117.398 147.873C113.871 145.882 111.124 143.214 108.741 140.141ZM103.24 130.169C101.193 131.633 99.1433 133.097 97.0221 134.614C97.8166 136.205 98.6353 137.845 99.5238 139.624C101.696 138.242 103.758 136.931 105.772 135.649C104.878 133.713 104.046 131.913 103.24 130.17L103.24 130.169ZM51.0336 56.5682C51.5823 55.3241 52.0996 54.1512 52.6304 52.9492C51.4561 52.6328 50.3439 52.3285 49.2273 52.0414C49.124 52.015 48.9508 52.0556 48.8839 52.1312C48.001 53.1266 47.1317 54.1341 46.2047 55.2008C47.8742 55.6732 49.4325 56.1143 51.035 56.5682L51.0336 56.5682ZM111.162 54.3672C110.11 55.6098 109.122 56.7756 108.034 58.0603C110.493 58.3011 112.775 58.5242 115.057 58.7472C115.079 58.6987 115.101 58.651 115.122 58.6025C113.821 57.2102 112.52 55.8193 111.162 54.3672ZM115.022 63.2063C112.947 63.0388 110.972 62.8792 108.892 62.7118C109.889 64.3001 110.834 65.8049 111.812 67.3633C112.893 65.9638 113.928 64.6236 115.022 63.2063ZM115.914 68.0737C117.895 68.2248 119.719 68.3637 121.659 68.5112C120.783 66.9236 119.964 65.4423 119.065 63.8148C117.988 65.2705 117 66.6059 115.914 68.0737ZM106.618 67.8336C105.694 66.1384 104.833 64.5594 103.917 62.8792C103.428 64.4226 102.981 65.8327 102.516 67.2999C103.885 67.478 105.188 67.6476 106.618 67.8336Z" fill="#98EC00"/>
</g>
<defs>
<clipPath id="clip0_387_210">
<rect width="131" height="130" fill="white" transform="translate(92.2542 148.115) rotate(45)"/>
</clipPath>
<clipPath id="clip1_387_210">
<rect width="130" height="131" fill="white" transform="translate(240.746 148.115) rotate(45)"/>
</clipPath>
<clipPath id="clip2_387_210">
<rect width="131" height="131" fill="white" transform="translate(92.9612 0.329834) rotate(45)"/>
</clipPath>
</defs>
</svg>
